<svg width="121" height="186" viewBox="0 0 121 186" fill="none" xmlns="http://www.w3.org/2000/svg">
<path d="M20 184.5L17.5 182.5L14 175H6.5L2.5 171.5V159L1 158V153L9 146V143L5.5 141.5V140L7 138V136L5.5 135V132L12 128V118L13.5 115V111.5L11.5 108.5V105.5L13 103V92L18.5 86.5V82L13 78V75L11.5 73.5V70V66.5L10.5 65.5V62.5L10 61V58L16 56V43L30 31.5V25L14.5 12L19.5 7H23L29 3.5H40.5L44 1H48L49.5 2H57.5L61.5 5H69.5L76 11.5H82.5L87 16V21.5L85.5 23V27L86.5 28.5V31.5L85 33.5V37L90 39L96.5 44V48.5L94.5 50.5V54.5L98 56.5V62.5L106 69.5L112.5 77.5V85.5L103.5 93.5V103L101.5 105.5V108L103 109.5L111 111L120 116.5V118L117 120V128L115.5 130V140L114 142.5H107.5L101.5 146.5L79.5 152L68.5 162V164.5L70.5 165V167L66.5 168.5V173L68 174V177L60.5 183H52L51 184L47.5 184.5H37L31.5 183.5H27L23.5 184.5H20Z" fill="#60A5FA" stroke="white" stroke-width="2" stroke-linejoin="round"/>
</svg>
