<svg width="142" height="96" viewBox="0 0 142 96" fill="none" xmlns="http://www.w3.org/2000/svg">
<path d="M108.5 63L114 70V72.5H113H107.5L104.5 74H92L84 70.5H82L80.5 73.5L75 76.5H69L61.5 81.5V90.5L55.5 95H52.5L42.5 91H25L17.5 88.5L11 82L2.5 66.5L1 61H9.5L16 53L19 52.5V48.5L16 45.5V41.5L21.5 38V32.5L23 31V29L18.5 25.5V23L20.5 20.5L24.5 19L35.5 17L40.5 13H46L53 10H60L63.5 11H73L88 14.5H91.5V11.5L93.5 9H96.5V3V1H98.5H102L105.5 7H115.5L118 5H123L127.5 8.5V14.5L141 26.5V28.5L136 33.5V36.5L132 42H124.5L116.5 46H109.5V49.5L111.5 52V57.5L108.5 59.5V63Z" fill="#60A5FA" stroke="white" stroke-width="2" stroke-linejoin="round"/>
</svg>
