<svg width="236" height="159" viewBox="0 0 236 159" fill="none" xmlns="http://www.w3.org/2000/svg">
<path d="M207 125L202.5 134H198.5L192.5 132V127L186 116.5L180 112.5L170 109L157 101.5H146L135 106H127V110L120 115V121.5H110V125L106 128.5H98V133L95.5 135L89 144.5H86.5L82 147L76.5 153.5L70 155V158H67.5L55.5 155H45.5V151H34V144.5L18.5 121.5H9.5V117L11 114V108.5L1 101V97L8.5 91V88.5L8 87V81.5L11 81V79L9.5 78V75L11.5 74L21 65L42 60L47.5 56H53.5L57 54V52L55.5 51V49L56.5 48V34L59.5 32.5V30L51.5 24H45L42.5 22V19L44 17.5V11V6.5L49.5 1H51.5L66 10.5H78.5L84.5 16.5L112.5 18.5L116.5 23H123L126.5 28.5L131.5 31.5L142.5 33.5L148 38.5L159.5 42.5L164 46H167.5L169.5 45H174L177 44V42.5L176 41.5V38.5L179 35H187.5L189 33.5V29L185 27V24.5L186.5 22.5H194.5L196.5 24.5H202.5L204 22.5H206L207.5 23.5V29.5L205 31V34.5L203 36V38.5L205 40V42L199.5 46.5L198.5 49.5L196 53.5H193.5V57.5L195.5 60V63.5V67L234.5 103V104.5L233 108.5L226.5 120H223L219.5 122L215 125H207Z" fill="#60A5FA" stroke="white" stroke-width="2" stroke-linejoin="round"/>
</svg>
