<svg width="292" height="150" viewBox="0 0 292 150" fill="none" xmlns="http://www.w3.org/2000/svg">
<path d="M154 149H141.5L137.5 144H127H119H113.5L105.5 146H98L95 142V138L94 133.5L89 126.5L80.5 119L86.5 115.5H94V105.5H90.5L83 101V96.5L80.5 94.5H77.5L71.5 90V88L73 86.5V83.5L60.5 77.5H48L41.5 74L34.5 72L21 66L12 60.5L1 55.5L6.5 47.5L12 44.5H16.5L32 49H42.5L46.5 47H51H56L59.5 44.5L62.5 34.5L65 31H70.5V26.5L73 23.5H78L79.5 17L83 11.5L89.5 6.5H104H107H115L119.5 14H123.5L126.5 7.5L129.5 5H138L141.5 2H147.5L151 1H156L158.5 3H165.5L173.5 9H180.5L194 13L201 17.5H214L225 14L237 11.5H247.5L257 19.5V23L271 27.5L269.5 31L273 36.5H278.5V41.5L283 45.5V48.5L281.5 52V56L289.5 64.5V69.5L291 72.5V75H284.5V78.5L287 83.5V87L285.5 89L277.5 93H267.5L265 94V98L262 100.5H258.5L255 103L251 110H246.5L239 106H234L232 107H224.5L221 109.5L220 113.5L213.5 118L207.5 120V125.5L200 129.5L199 132L197 131H193L191 132H181.5L181 133L172 136L167.5 144H160.5L154 149Z" fill="#60A5FA" stroke="white" stroke-width="2" stroke-linejoin="round"/>
</svg>
