<svg width="174" height="179" viewBox="0 0 174 179" fill="none" xmlns="http://www.w3.org/2000/svg">
<path d="M124 28L122.5 25.5L116.5 20V15L117.5 12V7.5L107.5 1H102L101 3H95.5L84 10H79V12L81 13.5L76.5 17.5H72L69 20H66.5L63 18H55V20H49V25L46.5 31L44 34.5L39 37.5L33 44.5L27.5 45.5L24.5 46L18.5 50.5L8.5 53L13.5 60L22.5 65V67L19.5 70H10L6.5 73.5L6 81L1 86V98.5L5 100.5H8.5L20.5 110L23 117.5L24 122L30 126.5V131.5L28 136V138L34.5 140V144.5L30 145.5V149L32.5 151.5L36 153.5H54H58.5L61 155H65.5L70.5 153.5H74L79 159.5L85 166L94 172L102 175.5L123.5 177.5L125.5 175.5L127 169L130 165.5H138V164V161.5L140.5 158.5L144 152L150.5 151L155 148V144H146L136 138V133L139.5 129H143L147.5 131.5H151.5L154 130V126L149.5 121.5V117L156 111.5H164.5L165 109.5V106.5L159 102V100L160 99V95L157 92V88.5L152 82.5V79L154 75.5L157.5 69.5L162.5 66.5H166.5L172.5 70.5L173 65L165.5 61.5H157.5L156 62.5H149.5L141.5 54L136 52.5V51.5L137 50V47L135 45V44L137.5 40.5L132.5 37L127.5 35.5L124 33V28Z" fill="#60A5FA" stroke="white" stroke-width="2" stroke-linejoin="round"/>
</svg>
