<svg width="175" height="158" viewBox="0 0 175 158" fill="none" xmlns="http://www.w3.org/2000/svg">
<path d="M97.5 144L106.5 136.5H116L119.5 134V130.5L117.5 128.5L118 117.5L122 112.5V105L124.5 101.5H132L138 99V96.5L128 89.5L123.5 84L135 81L139 76H147.5L155 68.5L160.5 63.5L164 57.5L165 50.5H170L173.5 46.5V43L172.5 40.5V32L168.5 27L163 24.5L160 20.5V12.5H147L141 1H136.5L132 3.5H124.5L122.5 2.5H117L110.5 8.5H108L102.5 16V21.5L105 23V27L102 29.5H97L87 40.5H84.5L79.5 45.5H74.5L68.5 54L60 59H56.5L54.5 58H52L50 62.5L46 65.5V67L48.5 68.5V70.5L47 71.5H40.5L24 85.5H14.5L8 92.5H1V98.5L6.5 103H21L26.5 109H33V110.5V115L34 116V118.5L31 122H20L19.5 123V126L21 128V136.5H26.5L28 138.5H32.5L37.5 144H43.5C43.9 144 47 142.333 48.5 141.5H52.5L54 142.5L64 145L68.5 148.5V154.5H76.5L82 157H90L94 153L97.5 149V144Z" fill="#60A5FA" stroke="white" stroke-width="2" stroke-linejoin="round"/>
</svg>
