<svg width="192" height="113" viewBox="0 0 192 113" fill="none" xmlns="http://www.w3.org/2000/svg">
<path d="M19 48L2 61.5L1 62.5V69.5L7 74L13 78.5V85V89.5L14.5 92L12.5 98H20L23 100.5H25.5L28 97H32.5L37 92L34.5 90H40L50 83H54.5L59.5 81H64.5L75 87.5V90L72.5 94.5V99.5L78 105.5H87.5L95 111.5H101.5L105.5 109V106L104.5 105V89.5H109.5V85.5L111 80.5L114 72L111.5 70.5V68L115.5 65L117 60.5H120.5L123 58H128V54H131.5L134.5 50H143.5L146.5 48H149.5L156.5 53H158.5L160.5 51V46L164.5 42.5L164 40.5V39L167.5 36L173.5 35.5V35V32.5L190.5 23V21.5L186 19.5L180.5 14L179 11L176.5 8H173.5L171.5 7L164.5 2L162.5 1H159.5L158.5 1.5H156L144.5 11L143.5 11.5L141.5 12.5H135.5L134.5 13H133.5L130.5 14L127.5 16L125 18.5L123 27L122 29H119.5L118 30H117L115.5 29H111.5L110.5 30L108 34H102.5L100.5 35H96L93.5 33.5H89L88.5 34H84L83 35H78.5L75.5 37.5H69L66 39.5H63L59 42.5H52L47 45.5V48L48 48.5V51L43.5 55.5H37L28 53L19 48Z" fill="#60A5FA" stroke="white" stroke-width="2" stroke-linejoin="round"/>
</svg>
