<svg width="794" height="665" viewBox="0 0 794 665" fill="none" xmlns="http://www.w3.org/2000/svg">
<path d="M6.5 115.5L1 123.5L12 128.5L20 133.5L34.5 140L41.5 142L48 145.5H60.5L73 151.5V154.5L71.5 156V158L77.5 162.5H80.5L83 164.5V169L90.5 173.5H94V183.5H86.5L80.5 187L89 194.5L94 201.5L95 206V210L98 214H105.5L114 212H137.5L142 217.5V222.5L132 228.5H125.5L121 232V236L122 237.5V242L130 254L141 260V265L149 269H164L168 274.5V280L166 286V292.5L176 301L186 304.5L189 308L202 309.5L213.5 313.5V318L222 322V326L220 327.5V330L221 332V335L215.5 341V345L217.5 348.5H224L256 336H262.5L272.72 340H288L298 335H309L313 329.5L315 324L321 320.5V318.5L323.5 314L328.5 309.5H333.5L337.5 308.5H341.5L347 309.5H356.5L361 309L362 308H371V310L381 317.5V323L379.5 326V331H375L368 335.5V338L370.5 341V345.5L368.5 348V352.5L359.5 361.5L353 369.5V372.5L362 379.5L367.5 386L377 402V406.5L368.5 412V415L370 416.5H379L381 418V423L376 427.5V430L378.5 432.5V436.5L376 439V441.5L377.5 442.5V448.5L383.5 454L384 461.5L389 466.5V473.5L383.5 476L382 478.5V482.5L387.5 488.5L389 492L390.5 493H394.5L398.5 496.5V504L394 508V511L399 518.5V523L391.5 529.5L390 534V537.5L388.5 538.5V541L393 545V553.5L398.5 558H413L418.5 564H425V570L426 571V573.5L423 577H412.5L411.5 578V581L413 583V591.5H418.5L420 593.5H424.5L429.5 599H435.5L440.733 596.5H444.5L446 597.5L456 600L460.5 603.5V609.5H468.5L474 612H482L489.5 604V599L498.5 591.5H508L511.5 589.184V586.5H516.5L528.5 596L532 608L538 612.5V617.5L536 622V624L542.5 626V630.5L538 631.5V635L540.5 637.5L544 639.5H566.5L569 641H574L578.5 639.5H582L593 652L602 658L610.5 661.5L631.5 663.5L633.5 661.5L635 655L638 651.5H646V647.5L648.5 644.5L652 638L659 636.5L663 634V630H654L644 624V619L647.5 615H651L655.5 617.5H659.5L662 616V612L657.5 607.5V603L664 597.5H672.5L673 595.5V592.5L667 588V586L668 585V581L665 578V574.5L660 568.5V565L665.5 555.5L671 552.5H675L680.5 556.5L681 551L687 551.5V548.5H690V545L694 541.5H698.5L701.5 537H703.5L705 538L707.5 535H711L714 529L720 527V525.5L716 523V521.5L718 519H728V515L725.5 513.5V511.5L727.5 509V504H732.5L735.5 503.5V501.5L731 501V498L729 495.5L731 493.5H734L737 491H741L744.5 494.5H749L750.5 495.5H753.5L755.5 494.5V493L754 490.5V487L755.5 485.5H760L765 480H769.5L771.5 476.5H776.5V475.5L775.5 474.5V471H781.5L785.5 466.5V463L779 457V455.5L781 453H787L789 451.5V449.5L784.5 447L782.5 446.5L786 442L785.5 441.5V439.5L793 433V431L786.5 428.5V426.5L789 424V411L785 405L780.5 402L786 395L784.5 393V392L787 390.5L784.5 388.5H773V381L771 377H769.5L767.5 378H762.5L761 377H757L752.5 380.5V384.5L750 388H748.5L748 389H743.5L741.5 396.5H736L733 400.5H728.5V406.5H724L719.5 403.5H714.5L710.5 408.5H708L697 417.5L693.5 419.5H687.5L686.5 420H685.5L682.5 421L679 423L677 425.5L674.5 436H672L669.5 437L667 436H663.5L662.5 437L660 441H655L652.5 442H648L645.5 440.5H641.5L640.5 441H636L635 442H631L628 444.5H621.5L617.5 446.5H615C613.667 447.5 610.9 449.5 610.5 449.5H604.5L599 452.5V455L600 455.5V458L596 462.5H589L579.5 459.5L570 455L549.5 443L546.5 437L542 435L553 432L556.5 429L548 428L551 424V422.5L546 422L520 421L515 417L519 414L527.5 413.5L541.5 404L525 395.5H521.5L513 399H510L505 393L502 386V377L503.5 375V371L500 369V367.5H507.5V363L516 357H524L526 359H539L545 353.5L550 353H561L562.5 354H570L574.5 351V348.5L572 343.5L577 334H585L593 329H596.5L603 317.5L604.5 313.5V312L565.5 276V269L563.5 266.5V262.5H566L568.5 258.5L569.5 255.5L575 251V249L573 247.662V245L575 243.5V240L577.5 238.5V232.5L575 230.5V229L573.5 227.861V223.5L572 221.5V217.5L573.5 215.5V212L572 211H565.5L554 202L550.5 194.5L549.5 189.5V183L553.315 177H557L559 178.5H563L575 172L577 166.5H575L571.5 163V157.5L573.5 155L577 153.5L581 149V146.5L571.5 135.5L569.5 125L574 119.5L577 112.5V109.5L565 106.5L553.5 98.5H549.5L548 100H524.5L522.5 97H509.5L495.5 89.5H488.5L485 91H478.5L473.5 85.5V82.5L471.5 80L467.5 79L463 72.5H466V70L460.5 63.5V59.5L463.5 57.5V52L461.5 49.5V46H468.5L476.5 42H484L488 36.5V33.5L493 28.5V26.5L479.5 14.5V8.5L475 5H470L467.5 7H457.5L454 1H448.5V9H445.5L443.5 11.5V14.5H440L425 11H415.5L412 10H405L398 13H392.5L387 17L377 19L372.5 20.5L370.5 23V25.5L375 29V31L373.5 32.5V38L368 41.5V45.5L371 48.5V52.5L368 53L361.5 61H354L352.5 62H347L344 64H340L337 67.5L336.5 68.5L333 74.5L326 80.5L319.5 83.5V87.5L318 88.5L312.5 89.5L306.5 96L305.5 96.5L297 101L287 103.5L279.5 104.5H273L269.5 99L271 95.5L257 91V87.5L248 80L242.5 72L239 65V63L240.5 61V59L235 55V53L236.5 50.5V49L228.5 46H224.5L222 47.5L217.5 42.5H207.5L202.5 37H199L196 38H192L190.5 35.5V33L191.5 32V29.5L185.5 25H175.5L168 17H149L146.5 16H143.5L140 18.5H135.5L134 21V24.5L132 26.5H126.5L124 25H122V31L129 41.5L131 42.5H139L143 47H147.5V52.5L150.5 57L149 60.5V64L154 69H151L147.5 70H141.5L138 73H129.5L126.5 75.5L123.5 82H119.5L115 74.5H89.5L83 79.5L79.5 85L78 91.5H73L70.5 94.5V99H65L62.5 102.5L59.5 112.5L56 115H46.5L42.5 117H32L16.5 112.5H12L6.5 115.5Z" stroke="white" stroke-width="2" stroke-linejoin="round"/>
</svg>
