<svg width="182" height="153" viewBox="0 0 182 153" fill="none" xmlns="http://www.w3.org/2000/svg">
<path d="M86.5 125L59 122.5L54 116.5L40.5 116L35 113L27 107.5V98.5L21 89L12.5 82.5V77L9.5 74.5V71.5L11.5 69.5V64.5L8 61L1 57V48.5V44L2 41V37L4.5 35.5L6.5 31.5H14L21.5 27V19.5L23 14.5L26.5 11L36.5 6H42.5L45.5 4.5H53L59 1H62L68 7L74.5 9.5L89 23.5V26L86.5 28V30.5L92 35.5V40L104.5 52V56.5L103 58V61.5L114.5 66.5H120.5L122 65H127L131 66.5L141.5 69H161L167 62.5H175L181 65V66.5L177 70.5L168 75.5H164L162 74H158.5L154.5 80V86L155.5 91L159 99L170.5 108H177L178.5 109V112.5L177 114.5V118.5L178.5 120.5V125L180 126V128.5L177 130H172.5L170.5 129H162L160 130V133L164 136V139L162 141H153.5L151 144V147V149.5L149.5 150.5L139.5 152L135.5 148.5L122.5 145L118.5 140.5L110.5 139L102 135L97.5 129L91 128.5L86.5 125Z" fill="#60A5FA" stroke="white" stroke-width="2" stroke-linejoin="round"/>
</svg>
