<svg width="85" height="72" viewBox="0 0 85 72" fill="none" xmlns="http://www.w3.org/2000/svg">
<path d="M18.5 26C18.5 25.8026 18.4415 25.6096 18.332 25.4453L17.7861 24.627L17.9141 24.5H22.5C22.8148 24.5 23.111 24.3514 23.2998 24.0996L25.999 20.5H31C31.4714 20.5 31.8786 20.1708 31.9775 19.71L33.415 13H37.5C37.8788 13 38.2251 12.786 38.3945 12.4473L38.6182 12H40C40.3512 12 40.6767 11.8158 40.8574 11.5146L42.3574 9.01465C42.4507 8.85923 42.5 8.68124 42.5 8.5V4.94434L46.8838 1H50.6973L51.9453 1.83203C52.1096 1.94154 52.3026 2 52.5 2H57C57.1552 2 57.3084 1.96396 57.4473 1.89453L59.2363 1H60.9121L63 4.75781V11.5C63 12.0523 63.4477 12.5 64 12.5H74.6367L77 14.4688V14.7793L74.6836 15.5518C74.3549 15.6614 74.106 15.9333 74.0264 16.2705C73.9469 16.6077 74.048 16.962 74.293 17.207L75.6855 18.5996L70.6934 25.4082C70.5289 25.6324 70.4652 25.9154 70.5176 26.1885C70.57 26.4614 70.7341 26.7003 70.9697 26.8477L74.8125 29.249L79 34.832V48.0859L76.793 50.293C76.6054 50.4805 76.5 50.7348 76.5 51V52C76.5 52.4226 76.7661 52.7993 77.1641 52.9414L83.5 55.2041V56.5234L75.8691 62.7236C75.6355 62.9135 75.5 63.1989 75.5 63.5V65C75.5 65.2652 75.6054 65.5195 75.793 65.707L76.1465 66.0605L72.0771 70.9434L64.5752 70.0605L61.832 65.9453C61.5523 65.5257 61.0038 65.3799 60.5527 65.6055L56.7773 67.4922L39.2285 67.0049L33.9141 64.5898C33.7841 64.5308 33.6428 64.5 33.5 64.5H25C24.8518 64.5 24.7062 64.533 24.5732 64.5957L24.4453 64.668L20.2959 67.4336L14.8438 66.2646L15.8037 63.7041L31.4688 55.3828C31.7954 55.2093 32 54.8699 32 54.5V52C32 51.5833 31.7417 51.2099 31.3516 51.0635C30.0506 50.5756 28.0462 49.72 26.2822 48.749C25.3991 48.2629 24.6013 47.7613 23.9883 47.2773C23.345 46.7695 23.0269 46.374 22.9287 46.1289C22.9075 46.0759 22.8815 46.0242 22.8516 45.9756C22.181 44.8859 21.1485 43.2495 20.2305 41.8809C19.7729 41.1988 19.334 40.5685 18.9785 40.1035C18.8032 39.8742 18.6318 39.6633 18.4785 39.502C18.404 39.4235 18.3108 39.3314 18.2061 39.252C18.1536 39.2122 18.0769 39.1597 17.9814 39.1133C17.8957 39.0716 17.7244 39 17.5 39C17.554 39 17.5342 39.0036 17.3438 38.9707C17.193 38.9446 16.9886 38.9055 16.7393 38.8555C16.2419 38.7556 15.5887 38.6168 14.876 38.4609C13.5598 38.1731 12.0546 37.83 10.9805 37.583L5.17578 32.2627C5.04647 32.1442 4.88803 32.0615 4.7168 32.0234L1.70508 31.3535L4.50879 27.5H9.19727L13.4453 30.332C13.6096 30.4415 13.8026 30.5 14 30.5H17.5C18.0523 30.5 18.5 30.0523 18.5 29.5V26Z" fill="#60A5FA" stroke="white" stroke-width="2" stroke-linejoin="round"/>
</svg>
