<svg width="148" height="123" viewBox="0 0 148 123" fill="none" xmlns="http://www.w3.org/2000/svg">
<path d="M95 11H90.5V15.5L92.5 18.5V22.5L88.5 26L83 28H74L70.5 30V32V34L67 36.5H62.5L59.5 40L56.5 45.5H52L44.5 41.5H39L37 42.5H29L26 44.5V48.5L20 52.5L12.5 55.5V61L4.5 66.5L1.5 76V82L6.5 90.5V92.5L1 101L13.5 119L16.5 117H25.5L30.5 120.5H33.5L37.5 118.5H41.5L44.5 122H46L47.5 121H52L53 122H56L57 119.5L61.5 115V106.5L63.5 104L66 103H69L70 102H75L78.5 98.5H81.5L82 99H85L88.5 102.5H90.5L92.5 98.5L95.5 97V86L96 85H98.5L102.5 87.5H111.5L118 85H122L127 87H130L135.5 80.5V77L130 72.5V69.5L127.5 67.5V65.5L128.5 63.5V61.5L126.5 56.5V53L133 50V38L137 35L138.5 32.5L147 25V21L146.5 19L132 6.5L126.5 4.5L120.5 1H119L113.5 4L105.5 5.5L95 11Z" fill="#60A5FA" stroke="white" stroke-width="2" stroke-linejoin="round"/>
</svg>
