<svg width="117" height="108" viewBox="0 0 117 108" fill="none" xmlns="http://www.w3.org/2000/svg">
<path d="M51.5 86L35 100H24.5L18 107H11.5V103.5L7.5 100V98L9 97V93.5L10.5 88.5L18 82V77.5L13 70V67L17.5 63V55.5L13.5 52H9.5L8 50.7679L6.5 47L1 41.5V37.5L2.5 35L5 34L8 32.5V25H11.5L14 22.5H16.5L19 24H27.5L30.5 22H34L37.5 24H43L45 22H48L48.5 23H61.5V18.5L58 14L48 8.5V6.5H53L55.5 8H67.5L72 9.5H76.5V5.5V1H79.5L81 1.5L88 8.5V12L82.5 17V20L98 29L106.5 36.5H113.5L116 37.5V41L113 44H107.5L98 55H95.5L91 60H86L78.5 69.5L71 73.5H67.5L66.5 72.5H63.5L61.5 76.5L57.5 80.5V82L59.5 84V86H51.5Z" fill="#60A5FA" stroke="white" stroke-width="2" stroke-linejoin="round"/>
</svg>
