<svg width="119" height="138" viewBox="0 0 119 138" fill="none" xmlns="http://www.w3.org/2000/svg">
<path d="M40.5 137H37.5L32 131.5L31.5 124L25.5 118.5V112.5L24 111.5V109L26.5 106.5V102.5L24 100V97.5L29 93V88L27 86.5H18L16.5 85V82L25 76.5V72L15.5 56L10 49.5L1 42.5V39.5L4.5 35.5L7 32L16.5 22.5V18L18.5 15.5V11L16 8V5.5L23 1H35L44.5 13.5L51 22.5V30H63V35.5H56.5L54.5 38V45.5L48.5 51.5V56L52 59.5V63L56 65V66.5L55 68V72L57 74.5L62.5 77.5V81.5L66.5 84.5H74.5L91.5 91L100 92.5H108.5L111.5 91H114.5L117.5 92.5V94.5L111.5 99.5L105.5 106.5V111.5V115.5L107 116.5V119L105 120H100L96.5 119H86.5L84 117.5H78V120L90 128V134.5H79.5L77.5 133.5H74.5L73 135.5H68L64 133H60L58 135H49.5L46.5 133.5H43.5L40.5 137Z" fill="#60A5FA" stroke="white" stroke-width="2" stroke-linejoin="round"/>
</svg>
