<svg width="201" height="106" viewBox="0 0 201 106" fill="none" xmlns="http://www.w3.org/2000/svg">
<path d="M6.5 57L19.5 69L28.5 68L35 63.5V54.5L37 50.5L40.5 48L49 43L54.5 42L67 41L72.5 37.5H74.5L80.5 44.5L88.5 47L102 60V62.5L99 65.5V67L104.5 71.5V76L117 89.5L118 93L117 94.5V97.5L119 100L134 103H141.5L146.5 105H175L181 100H186.5L194 101L196.5 95.5H194L190.5 92V86.5L192.5 84L196 82.5L200 78V75.5L190.5 64.5L188.5 54L193 48.5L196 41V38.5L184 35.5L172.5 27.5H168.5L167 29H151H143.5L141.5 26H128.5L114 18.5H107.5L104 20H97.5L92.5 14.5V11.5L90.5 9L86.5 8L82 2H77L73.5 3.5H61.5L54.5 1H51.5L48.5 4.5L37.5 6.5L30 11.5V21L24.5 24.5L21.5 28V34.5L15 39H9L6.5 37.5H2.5L1 39V47L6.5 57Z" fill="#60A5FA" stroke="white" stroke-width="2" stroke-linejoin="round"/>
</svg>
