<svg width="176" height="169" viewBox="0 0 176 169" fill="none" xmlns="http://www.w3.org/2000/svg">
<path d="M170 146L154 159.5H142.5L139 159L133.5 147H129.5L125 150H117.5L115.5 148.5H110L104 155H100.5L95 161V166.5L93.5 168H88L80.5 162L71 157L63 150.5L69.5 144V141L61 132.5H56.5V129L62.5 121.5L70.5 114.5L68.5 112H52H45.5L30 106L21 104H14V98.5L8 93.5V86.5L4 84.5V81.5L1 77V71.5L5 67.5L7 64V56H14L15 55H23L38 58V57L42 53.5H45L54.5 44H57L67 33V29H73L79 26V21H89.5V15.5L96 11V7.5L97 6H104.5L115.5 1H123.5L130 3.5L138 9L148.5 12L156 17L161.5 26.5V31L166 34H171.5L174.5 39.5V42L170 45H162.5L161 44H156.5H150L145 44.5L139 50H131H126L124 48H116L107.5 54V58.5H107H100V60L103.5 62V66L102 68V77L105 84L110 90H113L121.5 86.5H125L142 95L127 105H119L115 108L120 112L146 113L151 113.5V115L148 119L157 120L153 123L149 124L145 125L141 126L146 128L149.5 134L170 146Z" fill="#60A5FA" stroke="white" stroke-width="2" stroke-linejoin="round"/>
</svg>
