<svg width="129" height="85" viewBox="0 0 129 85" fill="none" xmlns="http://www.w3.org/2000/svg">
<path d="M10 42.5L1 44V49.5L6 53V56.5L3.5 62.5L11 71V75.5L14 82L23.5 78H29.5L35.5 74H38.5L48 79L64 71H73L79.25 68.25L81.5 68.5L85 69.5H92L95.5 71L105 72L110.5 79H116L122.5 84L126 80L122.5 76.5L111.5 66L106.5 56.5V48.5H111.5L114.5 49.5H122.5L127.5 46V40V35L118.5 32L97 31L89.5 27.5L86 21.5L78.5 8L76.5 1H75H70L67 3H63L60 6.5L56 13.5L49 19.5L42.5 22.5V26.5L41 27.5L35.5 28.5L29.5 35L20 40L10 42.5Z" fill="#60A5FA"/>
<path d="M77 68L79.25 68.25M79.25 68.25L81.5 68.5L85 69.5H92L95.5 71L105 72L110.5 79H116L122.5 84L126 80L122.5 76.5L111.5 66L106.5 56.5V48.5H111.5L114.5 49.5H122.5L127.5 46V40V35L118.5 32L97 31L89.5 27.5L86 21.5L78.5 8L76.5 1H75H70L67 3H63L60 6.5L56 13.5L49 19.5L42.5 22.5V26.5L41 27.5L35.5 28.5L29.5 35L20 40L10 42.5L1 44V49.5L6 53V56.5L3.5 62.5L11 71V75.5L14 82L23.5 78H29.5L35.5 74H38.5L48 79L64 71H73L79.25 68.25Z" stroke="white" stroke-width="2" stroke-linejoin="round"/>
</svg>
