<svg width="128" height="72" viewBox="0 0 128 72" fill="none" xmlns="http://www.w3.org/2000/svg">
<path d="M121.5 57L127 65H119L103.5 67.5L94.5 70.5H82L74 67.5L61 62.5H53L45.5 57L37.5 55.5L33 54L28 49V45.5L29.5 42L26.5 37.5V32H22L18 27.5H10L8 26.5L1 16V10H3L5.5 11.5H11L13 9.5V6L14.5 3.5H19L22.5 1H25.5L28 2H37.5H47L54.5 10H64.5L70.5 14.5V17L69.5 18V20.5L71 23H75L78 22H81.5L86.5 27.5H96.5L101 32.5L103.5 31H107.5L115.5 34V35.5L114 38V40L119.5 44V46L118 48V50L121.5 57Z" fill="#60A5FA" stroke="white" stroke-width="2" stroke-linejoin="round"/>
</svg>
