<svg width="159" height="114" viewBox="0 0 159 114" fill="none" xmlns="http://www.w3.org/2000/svg">
<path d="M30 56H25L24.5 61.5V70.5L26 71.5V75L23 78.5H18.5L13.5 77.5L7.5 72.5H1V79L4 81.5L13.5 86L14 87.5L12 89V91L14 93V96.5L13 98L19.5 100V102.5L26 109H33L34.5 108H42.5L50.5 112L56 112.5V109.5H59V106L63 102.5H67.5L70.5 98H72.5L74 99L76.5 96H80L83 90L89 88V86.5L85 84V82.5L87 80H97V79.5V76L94.5 74.5V72.5L96.5 70V65H102L104.5 64.5V62.5L100 62V58.5L98 56.5L100 54.5H103L106 52H110L113.5 55.5H118.5L119.5 56.5H122.5L124.5 55.5V54L123 52V48L124.5 46.5H129L134 41H138.5L140.5 37.5H145.5V36.5L144.5 35.5V32H150.5L154.5 27.5V24L148 18V16.5L150 14H156L158 12.5V10.5L153.5 8L144.5 6.5L140.5 2L138.5 3.5H121L113.5 1H105L101 3.5H98.5L96.5 3H88L85 5V10.5H82.5L81 12.5V13.5V18L79.5 19.5H76.5L70 15H68L65.5 17H60H55.5L52.5 20.5H48.5V25H44L41.5 27.5H38.5L36.5 30.5L32 34.5V38L34.5 39V39.5L33 43L30 50V56Z" fill="#60A5FA" stroke="white" stroke-width="2" stroke-linejoin="round"/>
</svg>
