<svg width="210" height="152" viewBox="0 0 210 152" fill="none" xmlns="http://www.w3.org/2000/svg">
<path d="M204.5 32V21.5L197.5 19.5H192.5L185.5 22H178.5L173 19.5H171L170 20.5V31L168 32.5L163.5 37.5L161 34L153.5 33L151 36L141.5 37.5L136.5 40L135 50L132 53L129.5 57L127 55H122L120.5 57L116.5 53H111.5L106 55L100 51.5H90L88 53L75 35L81.5 26.5L76 16V11.5L78 7.5V1H73.5L70.5 2.5H62L52.5 5.5L48 14H41.5L33 19.5H22V24.5L12 30.5H5.5L1 34V38L2 39.5V44L10 56L21 62V67L29 71H44L48 76.5V81.5L46 88.5V94.5L55.5 103L66 106.5L69 110L82 111.5L93.5 115.5V120L102 124V128L100 129.5V132L101 134V137L95.5 143V147L97.5 150.5H104L127.5 141L136 138H142.5L153 142H168L178 137H189L193 131.5L195 126L201 122.5V120.5L203.5 116L209 111L204.5 104H200L197.5 103L195 101.5L194 99V87.5L193 85.5V82L200 75.5V73L197.5 71V68.5L198.5 67.5V65.5L197.5 63.5V61L202 58.5L204.5 55.5V47.5L206 44.5V41L203.5 38.5V34L204.5 32Z" fill="#60A5FA" stroke="white" stroke-width="2" stroke-linejoin="round"/>
</svg>
