<?xml version="1.0" encoding="UTF-8"?>
<svg width="1060px" height="887px" viewBox="0 0 1060 887" version="1.1" xmlns="http://www.w3.org/2000/svg" xmlns:xlink="http://www.w3.org/1999/xlink">
    <title>Path</title>
    <g id="Page-1" stroke="none" stroke-width="1" fill="none" fill-rule="evenodd" fill-opacity="0.4" stroke-linejoin="round">
        <g id="asset" transform="translate(-904, -1015)" fill="#BFBFBF" stroke="#FFFFFF" stroke-width="2">
            <g id="pohang-line" transform="translate(904.6114, 1015.0427)">
                <path d="M8.67372709,154.101116 L1.33441955,164.774787 L16.0130346,171.445831 L26.688391,178.116875 L46.0374745,186.789232 L55.3784114,189.457649 L64.0521385,194.12738 L80.7323829,194.12738 L97.4126273,202.132633 L97.4126273,206.135259 L95.410998,208.136573 L95.410998,210.80499 L103.417515,216.80893 L107.420774,216.80893 L110.756823,219.477347 L110.756823,225.481287 L120.764969,231.485227 L125.435438,231.485227 L125.435438,244.827315 L115.427291,244.827315 L107.420774,249.497045 L118.76334,259.503611 L125.435438,268.843073 L126.769857,274.847012 L126.769857,280.183848 L130.773116,285.520683 L140.781263,285.520683 L152.123829,282.852265 L183.482688,282.852265 L189.487576,290.190414 L189.487576,296.861458 L176.143381,304.86671 L167.469654,304.86671 L161.464766,309.536441 L161.464766,314.873276 L162.799185,316.87459 L162.799185,322.878529 L173.474542,338.889035 L188.153157,346.894288 L188.153157,353.565332 L198.828513,358.902167 L218.844807,358.902167 L224.182485,366.240315 L224.182485,373.578464 L221.513646,381.583716 L221.513646,390.256074 L234.857841,401.596848 L248.202037,406.266579 L252.205295,410.93631 L269.552749,412.937623 L284.898574,418.274458 L284.898574,424.278398 L296.241141,429.615233 L296.241141,434.952068 L293.572301,436.953381 L293.572301,440.288903 L294.906721,442.957321 L294.906721,446.959947 L287.567413,454.9652 L287.567413,460.302035 L290.236253,464.971766 L298.90998,464.971766 L341.611405,448.294156 L350.285132,448.294156 L363.9229,453.630991 L384.312831,453.630991 L397.657026,446.959947 L412.335642,446.959947 L417.67332,439.621799 L420.342159,432.283651 L428.348676,427.61392 L428.348676,424.945502 L431.684725,418.941563 L438.356823,412.937623 L445.028921,412.937623 L450.366599,411.603414 L455.704277,411.603414 L463.043585,412.937623 L475.72057,412.937623 L481.725458,412.270519 L483.059878,410.93631 L495.069654,410.93631 L495.069654,413.604728 L508.413849,423.611293 L508.413849,430.949442 L506.41222,434.952068 L506.41222,441.623112 L500.407332,441.623112 L491.066395,447.627052 L491.066395,450.962574 L494.402444,454.9652 L494.402444,460.96914 L491.733605,464.304662 L491.733605,470.308601 L479.723829,482.316481 L471.050102,492.990151 L471.050102,496.992777 L483.059878,506.332239 L490.399185,515.004596 L503.076171,536.351937 L503.076171,542.355877 L491.733605,549.694025 L491.733605,553.696651 L493.735234,555.697965 L505.74501,555.697965 L508.413849,557.699278 L508.413849,564.370322 L501.741752,570.374261 L501.741752,573.709783 L505.0778,577.045305 L505.0778,582.382141 L501.741752,585.717663 L501.741752,589.053185 L503.743381,590.387393 L503.743381,598.392646 L511.749898,605.730794 L512.417108,615.73736 L519.089206,622.408404 L519.089206,631.747866 L511.749898,635.083388 L509.748269,638.41891 L509.748269,643.755745 L517.087576,651.760998 L519.089206,656.430729 L521.090835,657.764938 L526.428513,657.764938 L531.766191,662.434668 L531.766191,672.441234 L525.761303,677.77807 L525.761303,681.780696 L532.433401,691.787262 L532.433401,697.791202 L522.425255,706.463559 L520.423625,712.467498 L520.423625,717.137229 L518.421996,718.471438 L518.421996,721.80696 L524.426884,727.143795 L524.426884,738.48457 L531.766191,744.48851 L551.115275,744.48851 L558.454582,752.493762 L567.12831,752.493762 L567.12831,760.499015 L568.462729,761.833224 L568.462729,765.168746 L564.45947,769.838477 L550.448065,769.838477 L549.113646,771.172685 L549.113646,775.175312 L551.115275,777.843729 L551.115275,789.184504 L558.454582,789.184504 L560.456212,791.852922 L566.4611,791.852922 L573.133198,799.19107 L581.139715,799.19107 L588.122732,795.855548 L593.149491,795.855548 L595.15112,797.189757 L608.495316,800.525279 L614.500204,805.19501 L614.500204,813.200263 L625.17556,813.200263 L632.514868,816.535785 L643.190224,816.535785 L653.198371,805.862114 L653.198371,799.19107 L665.208147,789.184504 L677.885132,789.184504 L682.555601,786.094477 L682.555601,782.51346 L689.227699,782.51346 L705.240733,795.188444 L709.911202,811.198949 L717.917719,817.202889 L717.917719,823.873933 L715.24888,829.877873 L715.24888,832.54629 L723.922607,835.214708 L723.922607,841.218647 L717.917719,842.552856 L717.917719,847.222587 L721.253768,850.558109 L725.924236,853.226527 L755.948676,853.226527 L759.284725,855.22784 L765.956823,855.22784 L771.961711,853.226527 L776.632179,853.226527 L791.310794,869.904137 L803.32057,877.909389 L814.663136,882.57912 L842.685947,885.247538 L845.354786,882.57912 L847.356415,873.906763 L851.359674,869.237032 L862.035031,869.237032 L862.035031,863.900197 L865.371079,859.897571 L870.041548,851.225213 L879.382485,849.2239 L884.720163,845.888378 L884.720163,840.551543 L872.710387,840.551543 L859.366191,832.54629 L859.366191,825.875246 L864.03666,820.538411 L868.707128,820.538411 L874.712016,823.873933 L880.049695,823.873933 L883.385743,821.87262 L883.385743,816.535785 L877.380855,810.531845 L877.380855,804.527905 L886.054582,797.189757 L897.397149,797.189757 L898.064358,794.521339 L898.064358,790.518713 L890.057841,784.514773 L890.057841,781.846356 L891.392261,780.512147 L891.392261,775.175312 L887.389002,771.172685 L887.389002,766.502955 L880.716904,758.497702 L880.716904,753.827971 L888.056212,741.152988 L895.395519,737.150361 L900.733198,737.150361 L908.072505,742.487196 L908.739715,735.149048 L916.746232,735.816152 L916.746232,731.813526 L920.749491,731.813526 L920.749491,727.143795 L926.087169,722.474064 L932.092057,722.474064 L936.095316,716.470125 L938.764155,716.470125 L940.765784,717.804334 L944.101833,713.801707 L948.772301,713.801707 L952.77556,705.796454 L960.782077,703.128037 L960.782077,701.126724 L955.444399,697.791202 L955.444399,695.789888 L958.113238,692.454366 L971.457434,692.454366 L971.457434,687.117531 L968.121385,685.116218 L968.121385,682.4478 L970.790224,679.112278 L970.790224,672.441234 L977.462322,672.441234 L981.46558,671.77413 L981.46558,669.105712 L975.460692,668.438608 L975.460692,664.435982 L972.791853,661.10046 L975.460692,658.432042 L979.463951,658.432042 L983.46721,655.09652 L988.804888,655.09652 L993.475356,659.766251 L999.480244,659.766251 L1001.48187,661.10046 L1005.48513,661.10046 L1008.15397,659.766251 L1008.15397,657.764938 L1006.15234,654.429416 L1006.15234,649.759685 L1008.15397,647.758372 L1014.15886,647.758372 L1020.83096,640.420223 L1026.83585,640.420223 L1029.50468,635.750492 L1036.17678,635.750492 L1036.17678,634.416284 L1034.84236,633.082075 L1034.84236,628.412344 L1042.84888,628.412344 L1048.18656,622.408404 L1048.18656,617.738674 L1039.51283,609.733421 L1039.51283,607.732108 L1042.18167,604.396586 L1050.18819,604.396586 L1052.85703,602.395272 L1052.85703,599.726855 L1046.85214,596.391333 L1044.1833,595.724228 L1048.85377,589.720289 L1048.18656,589.053185 L1048.18656,586.384767 L1058.1947,577.71241 L1058.1947,575.043992 L1049.52098,571.70847 L1049.52098,569.040053 L1052.85703,565.704531 L1052.85703,548.359816 L1047.51935,540.354563 L1041.51446,536.351937 L1048.85377,527.012475 L1046.85214,524.344058 L1046.85214,523.009849 L1050.18819,521.008536 L1046.85214,518.340118 L1031.50631,518.340118 L1031.50631,508.333552 L1028.83747,502.996717 L1026.83585,502.996717 L1024.16701,504.330926 L1017.49491,504.330926 L1015.49328,502.996717 L1010.1556,502.996717 L1004.15071,507.666448 L1004.15071,513.003283 L1000.81466,517.673014 L998.813035,517.673014 L998.145825,519.007223 L992.140937,519.007223 L989.472098,529.013789 L982.13279,529.013789 L978.129532,534.350624 L972.124644,534.350624 L972.124644,542.355877 L966.119756,542.355877 L960.114868,538.35325 L953.44277,538.35325 L948.105092,545.024294 L944.769043,545.024294 L930.090428,557.032173 L925.419959,559.700591 L917.413442,559.700591 L916.079022,560.367695 L914.744603,560.367695 L910.741344,561.701904 L906.070876,564.370322 L903.402037,567.705844 L900.065988,581.715036 L896.729939,581.715036 L893.39389,583.049245 L890.057841,581.715036 L885.387373,581.715036 L884.052953,583.049245 L880.716904,588.38608 L874.044807,588.38608 L870.708758,589.720289 L864.70387,589.720289 L861.367821,587.718976 L856.030143,587.718976 L854.695723,588.38608 L848.690835,588.38608 L847.356415,589.720289 L842.018737,589.720289 L838.015479,593.055811 L829.341752,593.055811 L824.004073,595.724228 L820.668024,595.724228 C818.889243,597.058437 815.196904,599.726855 814.663136,599.726855 L806.656619,599.726855 L799.317312,603.729481 L799.317312,607.065003 L800.651731,607.732108 L800.651731,611.06763 L795.314053,617.071569 L785.973116,617.071569 L773.29613,613.068943 L760.619145,607.065003 L733.263544,591.054498 L729.260285,583.049245 L723.255397,580.380827 L737.934012,576.378201 L742.604481,572.375575 L731.261914,571.041366 L735.265173,565.704531 L735.265173,563.703217 L728.593075,563.036113 L693.898167,561.701904 L687.226069,556.365069 L692.563747,552.362443 L703.906314,551.695338 L722.588187,539.020355 L700.570265,527.67958 L695.899796,527.67958 L684.55723,532.349311 L680.553971,532.349311 L673.881874,524.344058 L669.878615,515.004596 L669.878615,502.996717 L671.880244,500.328299 L671.880244,494.991464 L667.209776,492.323047 L667.209776,490.321733 L677.217923,490.321733 L677.217923,484.317794 L688.560489,476.312541 L699.235845,476.312541 L701.904684,478.980959 L719.252138,478.980959 L727.258656,471.64281 L733.930754,470.975706 L748.609369,470.975706 L750.610998,472.309915 L760.619145,472.309915 L766.624033,468.307288 L766.624033,464.971766 L763.287984,458.300722 L769.960081,445.625739 L780.635438,445.625739 L791.310794,438.954695 L795.981263,438.954695 L804.65499,423.611293 L806.656619,418.274458 L806.656619,416.273145 L754.614257,368.241628 L754.614257,358.902167 L751.945418,355.566645 L751.945418,350.22981 L755.281466,350.22981 L758.617515,344.892974 L759.951935,340.890348 L767.291242,334.886408 L767.291242,332.217991 L764.622403,330.432819 L764.622403,326.881156 L767.291242,324.879842 L767.291242,320.210112 L770.627291,318.208798 L770.627291,310.203546 L767.291242,307.535128 L767.291242,305.533815 L765.289613,304.014151 L765.289613,298.195666 L763.287984,295.527249 L763.287984,290.190414 L765.289613,287.521996 L765.289613,282.852265 L763.287984,281.518056 L754.614257,281.518056 L739.268432,269.510177 L734.597963,259.503611 L733.263544,252.832567 L733.263544,244.16021 L738.354354,236.154957 L743.27169,236.154957 L745.94053,238.156271 L751.278208,238.156271 L767.291242,229.483913 L769.960081,222.145765 L767.291242,222.145765 L762.620774,217.476034 L762.620774,210.137886 L765.289613,206.802364 L769.960081,204.801051 L775.29776,198.797111 L775.29776,195.461589 L762.620774,180.785292 L759.951935,166.7761 L765.956823,159.437951 L769.960081,150.09849 L769.960081,146.095863 L753.947047,142.093237 L738.601222,131.419567 L733.263544,131.419567 L731.261914,133.42088 L699.903055,133.42088 L697.234216,129.418253 L679.886762,129.418253 L661.204888,119.411687 L651.863951,119.411687 L647.193483,121.413001 L638.519756,121.413001 L631.847658,114.074852 L631.847658,110.072226 L629.178819,106.736704 L623.841141,105.402495 L617.836253,96.7301379 L621.839511,96.7301379 L621.839511,93.3946159 L614.500204,84.7222587 L614.500204,79.3854235 L618.503462,76.7170059 L618.503462,69.3788575 L615.834623,66.0433355 L615.834623,61.3736047 L625.17556,61.3736047 L635.850916,56.0367695 L645.859063,56.0367695 L651.196741,48.6986211 L651.196741,44.6959947 L657.868839,38.0249508 L657.868839,35.3565332 L639.854175,19.3460276 L639.854175,11.3407748 L633.849287,6.67104399 L627.177189,6.67104399 L623.841141,9.33946159 L610.496945,9.33946159 L605.826477,1.3342088 L598.487169,1.3342088 L598.487169,12.0078792 L594.48391,12.0078792 L591.815071,15.3434012 L591.815071,19.3460276 L587.144603,19.3460276 L567.12831,14.6762968 L554.451324,14.6762968 L549.780855,13.342088 L540.439919,13.342088 L531.098982,17.3447144 L523.759674,17.3447144 L516.420367,22.6815496 L503.076171,25.3499672 L497.071283,27.3512804 L494.402444,30.6868024 L494.402444,34.0223244 L500.407332,38.6920552 L500.407332,41.3604728 L498.405703,43.3617859 L498.405703,50.6999343 L491.066395,55.3696651 L491.066395,60.7065003 L495.069654,64.7091267 L495.069654,70.0459619 L491.066395,70.7130663 L482.392668,81.3867367 L472.384521,81.3867367 L470.382892,82.7209455 L463.043585,82.7209455 L459.040326,85.3893631 L453.702648,85.3893631 L449.699389,90.0590939 L449.032179,91.3933027 L444.361711,99.3985555 L435.020774,107.403808 L426.347047,111.406435 L426.347047,116.74327 L424.345418,118.077479 L417.00611,119.411687 L408.999593,128.084045 L407.665173,128.751149 L396.322607,134.755089 L382.978411,138.090611 L372.970265,139.424819 L364.296538,139.424819 L359.626069,132.086671 L361.627699,127.41694 L342.945825,121.413001 L342.945825,116.74327 L330.936049,106.736704 L323.596741,96.0630335 L318.926273,86.7235719 L318.926273,84.0551543 L320.927902,81.3867367 L320.927902,78.7183191 L313.588595,73.3814839 L313.588595,70.7130663 L315.590224,67.3775443 L315.590224,65.3762311 L304.914868,61.3736047 L299.577189,61.3736047 L296.241141,63.3749179 L290.236253,56.7038739 L276.892057,56.7038739 L270.219959,49.3657255 L265.549491,49.3657255 L261.546232,50.6999343 L256.208554,50.6999343 L254.206925,47.3644123 L254.206925,44.0288903 L255.541344,42.6946815 L255.541344,39.3591596 L247.534827,33.35522 L234.190631,33.35522 L224.182485,22.6815496 L198.828513,22.6815496 L195.492464,21.3473408 L191.489206,21.3473408 L186.818737,24.6828628 L180.813849,24.6828628 L178.81222,28.0183848 L178.81222,32.6881156 L176.143381,35.3565332 L168.804073,35.3565332 L165.468024,33.35522 L162.799185,33.35522 L162.799185,41.3604728 L172.140122,55.3696651 L174.808961,56.7038739 L185.484318,56.7038739 L190.821996,62.7078135 L196.826884,62.7078135 L196.826884,70.0459619 L200.830143,76.0499015 L198.828513,80.7196323 L198.828513,85.3893631 L205.500611,92.0604071 L201.497352,92.0604071 L196.826884,93.3946159 L188.820367,93.3946159 L184.149898,97.3972423 L172.807332,97.3972423 L168.804073,100.732764 L164.800815,109.405121 L159.463136,109.405121 L153.458248,99.3985555 L119.43055,99.3985555 L110.756823,106.069599 L106.086354,113.407748 L104.084725,122.080105 L97.4126273,122.080105 L94.0765784,126.082731 L94.0765784,132.086671 L86.7372709,132.086671 L83.401222,136.756402 L79.3979633,150.09849 L74.7274949,153.434012 L62.0505092,153.434012 L56.712831,156.102429 L42.7014257,156.102429 L22.0179226,150.09849 L16.0130346,150.09849 L8.67372709,154.101116 Z" id="Path"></path>
            </g>
        </g>
    </g>
</svg>